<svg height="400" viewBox="0 0 400 399.99999" width="400" xmlns="http://www.w3.org/2000/svg"><g transform="matrix(1.3333333 0 0 -1.3333333 -155.30162 1069.8809)"><path d="m416.47623 652.41356c0-82.84073-67.1616-150.00284-150.00048-150.00284s-149.99953 67.16211-149.99953 150.00284c0 82.84358 67.16065 149.99717 149.99953 149.99717s150.00048-67.15359 150.00048-149.99717" fill="#f60"/><g fill="#fff"><path d="m265.56671 680.25396c0 1.9403-.20066 3.71024-.57738 5.30508-.37861 1.60052-1.04023 2.95589-1.9877 4.086-.95599 1.13201-2.22339 2.00846-3.82302 2.63882-1.60625.63415-3.61951.9465-6.05113.9465-2.4373 0-4.45056-.31235-6.04545-.9465-1.61288-.63036-2.87649-1.50681-3.82301-2.63882-.94369-1.13011-1.59963-2.48548-1.95458-4.086-.36819-1.59484-.54709-3.36478-.54709-5.30508 0-1.93937.1789-3.70836.54709-5.30699.35495-1.59862 1.01089-2.96914 1.95458-4.11819.94652-1.15093 2.21013-2.05577 3.82301-2.69938 1.59489-.66255 3.60815-.98909 6.04545-.98909 2.43162 0 4.44488.32654 6.05113.98909 1.59963.64361 2.86703 1.54845 3.82302 2.69938.94747 1.14905 1.60909 2.51957 1.9877 4.11819.37672 1.59863.57738 3.36762.57738 5.30699m-39.07348.3379c0 3.78595.49219 7.15547 1.45954 10.10568.95883 2.95305 2.52533 5.43287 4.66353 7.43281 2.14577 2.0094 4.88596 3.53324 8.24706 4.56492 3.35638 1.03546 7.44821 1.55319 12.26412 1.55319 4.78184 0 8.86231-.51773 12.23857-1.55319 3.36773-1.03168 6.12874-2.55552 8.27546-4.56492 2.14388-1.99994 3.7028-4.47976 4.65785-7.43281.97776-2.95021 1.4567-6.31973 1.4567-10.10568 0-3.82573-.47894-7.21984-1.4567-10.17006-.95505-2.95495-2.51397-5.43002-4.65785-7.43753-2.14672-2.00183-4.90773-3.52568-8.27546-4.55737-3.37626-1.03735-7.45673-1.56359-12.23857-1.56359-4.81591 0-8.90774.52624-12.26412 1.56359-3.3611 1.03169-6.10129 2.55554-8.24706 4.55737-2.1382 2.00751-3.7047 4.48258-4.66353 7.43753-.96735 2.95022-1.45954 6.34433-1.45954 10.17006"/><path d="m323.45691 680.25396c0 1.9403-.18836 3.71024-.56792 5.30508-.38618 1.60052-1.04591 2.95589-1.98865 4.086-.94747 1.13201-2.23001 2.00846-3.82963 2.63882-1.60531.63415-3.611.9465-6.04546.9465-2.42973 0-4.45339-.31235-6.05207-.9465-1.6072-.63036-2.86229-1.50681-3.80693-2.63882-.95315-1.13011-1.61571-2.48548-1.96877-4.086-.36062-1.59484-.53952-3.36478-.53952-5.30508 0-1.93937.1789-3.70836.53952-5.30699.35306-1.59862 1.01562-2.96914 1.96877-4.11819.94464-1.15093 2.19973-2.05577 3.80693-2.69938 1.59868-.66255 3.62234-.98909 6.05207-.98909 2.43446 0 4.44015.32654 6.04546.98909 1.59962.64361 2.88216 1.54845 3.82963 2.69938.94274 1.14905 1.60247 2.51957 1.98865 4.11819.37956 1.59863.56792 3.36762.56792 5.30699m-39.05834.3379c0 3.78595.47705 7.15547 1.44913 10.10568.95694 2.95305 2.53101 5.43287 4.65879 7.43281 2.14199 2.0094 4.89543 3.53324 8.25275 4.56492 3.35732 1.03546 7.44347 1.55319 12.26601 1.55319 4.77427 0 8.85095-.51773 12.2433-1.55319 3.363-1.03168 6.12874-2.55552 8.27168-4.56492 2.14009-1.99994 3.70564-4.47976 4.66447-7.43281.96924-2.95021 1.44818-6.31973 1.44818-10.10568 0-3.82573-.47894-7.21984-1.44818-10.17006-.95883-2.95495-2.52438-5.43002-4.66447-7.43753-2.14294-2.00183-4.90868-3.52568-8.27168-4.55737-3.39235-1.03735-7.46903-1.56359-12.2433-1.56359-4.82254 0-8.90869.52624-12.26601 1.56359-3.35732 1.03169-6.11076 2.55554-8.25275 4.55737-2.12778 2.00751-3.70185 4.48258-4.65879 7.43753-.97208 2.95022-1.44913 6.34433-1.44913 10.17006"/><path d="m359.02957 668.81768c.42594-.38238.64458-.83386.64458-1.37525v-8.42567c0-.58304-.21864-1.06764-.64458-1.48315-.42783-.40321-.95504-.59439-1.58543-.59439h-3.82112-.0568-8.76482c-.71652 0-1.31283.22337-1.81164.66348-.49598.45243-.73356.98814-.73356 1.61661v4.71731.0653 50.57674 2.21289c0 .53382.20256 1.00706.63038 1.41501.43162.39847.9541.59534 1.57786.59534h9.50216c.63228 0 1.15476-.19687 1.59111-.59534.41552-.40795.63228-.88119.63228-1.41501v-6.38598-36.83272c0-3.41683.009-2.84705.009-4.11346h1.17558.13819c.57833-.0426 1.08945-.25839 1.51728-.64172"/><path d="m254.65659 598.77456c.44487-.40226.67204-.87456.67204-1.44056v-8.81752c0-.61333-.22717-1.11686-.67204-1.55414-.4477-.42308-1.00237-.62279-1.66115-.62279h-3.99812-.0596-9.17371c-.74965 0-1.37246.23473-1.89779.69661-.51869.47325-.76479 1.03358-.76479 1.69138v4.9388.0672 52.93539 2.31795c0 .56128.20918 1.0544.65784 1.47937.45244.41647.99953.62563 1.65168.62563h9.94608c.65784 0 1.20871-.20916 1.66399-.62563.4354-.42497.66352-.91809.66352-1.47937v-1.93461-43.30107c0-3.57583.009-2.98144.009-4.30653h1.23049.14292c.60767-.0464 1.14246-.26975 1.59016-.67011"/><path d="m223.00368 666.65949-3.63844 4.71732c-.37861.52246-.84052.8083-1.39518.85752-.54141.0398-1.10176-.14103-1.66683-.566-1.00994-.67296-4.602-4.13806-14.40042-4.13806-7.14627 0-15.56465 3.82856-15.56465 13.01237 0 9.0352 8.93709 13.01047 15.56465 13.01047 9.20211 0 13.39048-3.46321 14.40042-4.13522.56507-.42593 1.12542-.60955 1.66683-.5679.55466.0511 1.01657.33885 1.39518.85752l3.63844 4.72016c.62754.76287.62754.77991.85944 1.08941 1.31946 1.67434-1.23048 3.3307-1.32229 3.37897-1.67441 1.14526-2.61809 1.65163-4.06533 2.39747-1.44345.73353-2.98155 1.32887-4.58969 1.77562-1.62708.44579-3.38477.77139-5.29296.97015-1.88738.17889-4.11454.27637-6.69004.27637-5.69714 0-10.34456-.67105-13.92338-1.9952-3.59112-1.33076-15.18793-6.74848-15.18793-21.26767 0-15.14291 11.59681-20.95911 15.18793-22.29083 3.57882-1.32319 8.22624-1.99141 13.92338-1.99141 2.5755 0 4.80266.0965 6.69004.27921 1.90819.19593 3.66588.51962 5.29296.96637 1.60814.45147 3.14624 1.04114 4.58969 1.77752 1.44724.74109 2.39092 1.25125 4.06533 2.39556.0918.0464 2.64175 1.70464 1.32229 3.38277-.2319.30761-.2319.32086-.85944 1.08751"/><path d="m217.29784 604.83192c-.3947-1.61567-1.07809-2.9966-2.07573-4.14564-.99196-1.13863-2.30857-2.03212-3.96594-2.63882-1.66777-.61333-3.76243-.91148-6.31521-.91148-2.52911 0-4.61999.29815-6.28682.91148-1.6602.6067-2.98723 1.50019-3.97256 2.63882-.98249 1.14904-1.66967 2.52997-2.06815 4.14564-.4108 1.61849-.60767 3.44144-.60767 5.45179 0 2.01413.19687 3.86736.60767 5.53507.39848 1.65542 1.08566 3.09031 2.06815 4.28289.98533 1.20109 2.31236 2.12392 3.97256 2.78457 1.66683.65498 3.75771.98435 6.28682.98435 2.55278 0 4.64744-.32937 6.31521-.98435 1.65737-.66065 2.97398-1.58348 3.96594-2.78457.99764-1.19258 1.68103-2.62747 2.07573-4.28289.39659-1.66771.60483-3.52094.60483-5.53507 0-2.01035-.20824-3.8333-.60483-5.45179m-41.33284-16.55888c0-.6067.23474-1.10929.7099-1.51155.45811-.40225 1.03455-.60576 1.67629-.60576 0 0 11.28541.0492 11.72839.15429.43825.0814.66162.41645.66162.97393l.089 1.43961c1.86087-.72595 3.97067-1.35915 6.3455-1.89487 2.41553-.53666 5.10745-.80925 8.06534-.80925 4.97209 0 9.19831.5395 12.68911 1.62513 3.4993 1.07899 6.34549 2.64071 8.54616 4.7088 2.21392 2.06808 3.80409 4.61982 4.78657 7.69781.98817 3.06758 1.47563 6.60935 1.47563 10.58651 0 3.99231-.51207 7.52082-1.54756 10.5903-1.02225 3.07326-2.64933 5.66002-4.85852 7.78868-2.2016 2.09837-5.06957 3.69416-8.6162 4.76842-3.53811 1.07521-7.80599 1.62512-12.77524 1.62512-2.94842 0-5.57692-.19592-7.90348-.56978-2.31804-.37197-4.37294-.90768-6.20731-1.61187v10.18709.0786 4.91987c0 .0606-.006.13062-.0161.18835v.15333c-.0502.56411-.29626 1.04871-.7345 1.4434-.44298.40605-1.01373.60292-1.6621.60292h-.25932-9.85711c-.6408 0-1.19641-.21012-1.63749-.62753-.45339-.41834-.67393-.94933-.67393-1.54751z"/><path d="m304.82097 634.76803c.45718-.40889.68056-.90769.68056-1.47464v-1.41216-7.10627-14.77378c0-4.16646-.32656-7.7584-.99764-10.75026-.65878-3.00984-1.83058-5.44989-3.54663-7.35992-1.71132-1.89298-4.07195-3.29095-7.07148-4.17308-2.99954-.9039-6.81971-1.34969-11.46147-1.34969-4.65217 0-8.48181.44579-11.49175 1.34969-3.04024.88213-5.4198 2.2801-7.14059 4.17308-1.74444 1.91003-2.95126 4.33872-3.63465 7.31828-.6815 2.9824-1.01373 6.55729-1.01373 10.73038v14.8353 5.2076 3.31083c0 .56695.2177 1.06575.65878 1.47464.4496.42686 1.00427.64171 1.66399.64171h1.33366 6.54048.98533c.64837 0 1.20398-.21485 1.68103-.64171.48178-.40889.71463-.90769.71463-1.47464v-8.51843-15.11925c0-1.68192-.0142-3.24836.0975-4.67851.11548-1.42826.48462-2.64072 1.12352-3.64967.63891-1.01559 1.62045-1.80118 2.95127-2.36339 1.34596-.56033 3.20114-.84427 5.59585-.84427 2.39187 0 4.24043.28394 5.56462.84427 1.3062.56221 2.27828 1.36484 2.91624 2.39273.62944 1.03641.99953 2.26685 1.12542 3.69321.11074 1.43109.16564 2.98712.16564 4.67472v15.05016 8.51843c0 .56695.24326 1.06575.67109 1.47464.44108.42686 1.00142.64171 1.65925.64171h1.19546 4.15051 3.2409c.65784 0 1.20304-.21485 1.64222-.64171"/><path d="m323.82652 615.56806c.17038 1.45476.52817 2.75335 1.01373 3.90334.50166 1.14336 1.239 2.11918 2.22339 2.92182.98154.79315 2.22149 1.42068 3.73498 1.86174 1.49173.45054 3.36585.67485 5.61384.67485 2.24989 0 4.05207-.24324 5.39235-.70608 1.32987-.47325 2.36158-1.12822 3.08378-1.93842.73261-.82628 1.23237-1.80307 1.52106-2.95211.26598-1.15377.46096-2.40692.55467-3.76514h-14.60677c-1.1699 0-1.22007-1.17271-1.22007-1.17271v-7.14033s0-1.04303 1.22007-1.04303h27.75967c.0587 2.62179.0587 5.17447 0 7.63345-.0341 2.45237-.28206 4.77885-.72977 6.95577-.45338 2.18356-1.15097 4.1693-2.12211 5.94302-.95504 1.79455-2.30668 3.3203-4.03314 4.6132-1.73971 1.29102-3.947 2.28768-6.6162 3.00228-2.67204.69189-5.90821 1.04965-9.71135 1.04965-5.57692 0-10.12118-.66916-13.63941-2.01035-3.52581-1.34117-6.27168-3.13004-8.2679-5.37512-1.99148-2.25454-3.35164-4.87159-4.07857-7.84547-.73829-2.9786-1.10081-6.11055-1.10081-9.40245 0-3.37518.36252-6.5535 1.10081-9.52738.72693-2.97861 2.06248-5.59566 4.03503-7.84169 1.97256-2.25359 4.73263-4.03205 8.2802-5.34672 3.52959-1.30711 8.11929-1.96776 13.74164-1.96776 2.54426 0 4.74114.0947 6.60391.27638 1.88453.19118 3.61761.51205 5.2267.95311 1.58449.44391 3.10271 1.02979 4.53291 1.75385 1.42547.73543 2.3559 1.23612 4.01042 2.36433.0909.0464 2.60673 1.6876 1.30432 3.33828-.23001.30287-.23001.32086-.85188 1.07522l-3.58733 4.65958c-.37293.51205-.8301.79505-1.3734.84427-.54047.0417-1.09229-.13725-1.64885-.56032-.9929-.6616-1.90724-1.23896-2.74397-1.72357-.85377-.49407-1.79367-.91999-2.81591-1.26451-1.0355-.35872-2.23285-.62279-3.58449-.81682-1.36678-.18173-3.05254-.27543-5.07243-.27543-2.34359 0-4.301.20917-5.87791.66064-1.56177.44675-2.85662 1.097-3.86561 1.94221-1.00332.84522-1.77852 1.84849-2.32088 3.03066-.53952 1.16135-.91434 2.45237-1.08472 3.86169-.57548 4.17971 0 9.35607 0 9.35607"/><path d="m323.45691 680.25396c0 1.9403-.18836 3.71024-.56792 5.30508-.38618 1.60052-1.04591 2.95589-1.98865 4.086-.94747 1.13201-2.23001 2.00846-3.82963 2.63882-1.60531.63415-3.611.9465-6.04546.9465-2.42973 0-4.45339-.31235-6.05207-.9465-1.6072-.63036-2.86229-1.50681-3.80693-2.63882-.95315-1.13011-1.61571-2.48548-1.96877-4.086-.36062-1.59484-.53952-3.36478-.53952-5.30508 0-1.93937.1789-3.70836.53952-5.30699.35306-1.59862 1.01562-2.96914 1.96877-4.11819.94464-1.15093 2.19973-2.05577 3.80693-2.69938 1.59868-.66255 3.62234-.98909 6.05207-.98909 2.43446 0 4.44015.32654 6.04546.98909 1.59962.64361 2.88216 1.54845 3.82963 2.69938.94274 1.14905 1.60247 2.51957 1.98865 4.11819.37956 1.59863.56792 3.36762.56792 5.30699m-39.05834.3379c0 3.78595.47705 7.15547 1.44913 10.10568.95694 2.95305 2.53101 5.43287 4.65879 7.43281 2.14199 2.0094 4.89543 3.53324 8.25275 4.56492 3.35732 1.03546 7.44347 1.55319 12.26601 1.55319 4.77427 0 8.85095-.51773 12.2433-1.55319 3.363-1.03168 6.12874-2.55552 8.27168-4.56492 2.14009-1.99994 3.70564-4.47976 4.66447-7.43281.96924-2.95021 1.44818-6.31973 1.44818-10.10568 0-3.82573-.47894-7.21984-1.44818-10.17006-.95883-2.95495-2.52438-5.43002-4.66447-7.43753-2.14294-2.00183-4.90868-3.52568-8.27168-4.55737-3.39235-1.03735-7.46903-1.56359-12.2433-1.56359-4.82254 0-8.90869.52624-12.26601 1.56359-3.35732 1.03169-6.11076 2.55554-8.25275 4.55737-2.12778 2.00751-3.70185 4.48258-4.65879 7.43753-.97208 2.95022-1.44913 6.34433-1.44913 10.17006"/><path d="m323.82652 615.56806c.17038 1.45476.52817 2.75335 1.01373 3.90334.50166 1.14336 1.239 2.11918 2.22339 2.92182.98154.79315 2.22149 1.42068 3.73498 1.86174 1.49173.45054 3.36585.67485 5.61384.67485 2.24989 0 4.05207-.24324 5.39235-.70608 1.32987-.47325 2.36158-1.12822 3.08378-1.93842.73261-.82628 1.23237-1.80307 1.52106-2.95211.26598-1.15377.46096-2.40692.55467-3.76514h-14.60677c-1.1699 0-1.22007-1.17271-1.22007-1.17271v-7.14033s0-1.04303 1.22007-1.04303h27.75967c.0587 2.62179.0587 5.17447 0 7.63345-.0341 2.45237-.28206 4.77885-.72977 6.95577-.45338 2.18356-1.15097 4.1693-2.12211 5.94302-.95504 1.79455-2.30668 3.3203-4.03314 4.6132-1.73971 1.29102-3.947 2.28768-6.6162 3.00228-2.67204.69189-5.90821 1.04965-9.71135 1.04965-5.57692 0-10.12118-.66916-13.63941-2.01035-3.52581-1.34117-6.27168-3.13004-8.2679-5.37512-1.99148-2.25454-3.35164-4.87159-4.07857-7.84547-.73829-2.9786-1.10081-6.11055-1.10081-9.40245 0-3.37518.36252-6.5535 1.10081-9.52738.72693-2.97861 2.06248-5.59566 4.03503-7.84169 1.97256-2.25359 4.73263-4.03205 8.2802-5.34672 3.52959-1.30711 8.11929-1.96776 13.74164-1.96776 2.54426 0 4.74114.0947 6.60391.27638 1.88453.19118 3.61761.51205 5.2267.95311 1.58449.44391 3.10271 1.02979 4.53291 1.75385 1.42547.73543 2.3559 1.23612 4.01042 2.36433.0909.0464 2.60673 1.6876 1.30432 3.33828-.23001.30287-.23001.32086-.85188 1.07522l-3.58733 4.65958c-.37293.51205-.8301.79505-1.3734.84427-.54047.0417-1.09229-.13725-1.64885-.56032-.9929-.6616-1.90724-1.23896-2.74397-1.72357-.85377-.49407-1.79367-.91999-2.81591-1.26451-1.0355-.35872-2.23285-.62279-3.58449-.81682-1.36678-.18173-3.05254-.27543-5.07243-.27543-2.34359 0-4.301.20917-5.87791.66064-1.56177.44675-2.85662 1.097-3.86561 1.94221-1.00332.84522-1.77852 1.84849-2.32088 3.03066-.53952 1.16135-.91434 2.45237-1.08472 3.86169-.57548 4.17971 0 9.35607 0 9.35607"/></g></g></svg>