<svg xmlns="http://www.w3.org/2000/svg" version="1.1" xmlns:xlink="http://www.w3.org/1999/xlink" viewBox="0 0 200 200"><rect width="200" height="200" fill="url('#gradient')"></rect><defs><linearGradient id="gradient" gradientTransform="rotate(196 0.5 0.5)"><stop offset="0%" stop-color="#70a9d9"></stop><stop offset="100%" stop-color="#e691e6"></stop></linearGradient></defs><g><g fill="#5d71f2" transform="matrix(9.078014184397164,0,0,9.078014184397164,-8.616325796073212,146.11442873663935)" stroke="#fdfdfd" stroke-width="2"><path d="M10.73-5.36L10.73-5.21Q10.73-2.74 9.62-1.27Q8.52 0.20 6.63 0.20L6.63 0.20Q5.18 0.20 4.24-0.87L4.24-0.87L4.24 4.06L0.95 4.06L0.95-10.57L4.02-10.57L4.12-9.59Q5.07-10.76 6.61-10.76L6.61-10.76Q8.56-10.76 9.65-9.32Q10.73-7.88 10.73-5.36L10.73-5.36ZM7.44-5.06L7.44-5.41Q7.44-8.22 5.80-8.22L5.80-8.22Q4.63-8.22 4.24-7.38L4.24-7.38L4.24-3.22Q4.67-2.34 5.82-2.34L5.82-2.34Q7.39-2.34 7.44-5.06L7.44-5.06ZM22.91-12.46L16.18-2.64L22.98-2.64L22.98 0L11.90 0L11.90-1.81L18.68-11.57L11.87-11.57L11.87-14.22L22.91-14.22L22.91-12.46Z"></path></g></g></svg>